<mxfile host="app.diagrams.net" modified="2023-12-06T02:36:51.505Z" agent="Mozilla/5.0 (Windows NT 10.0; Win64; x64) AppleWebKit/537.36 (KHTML, like Gecko) Chrome/119.0.0.0 Safari/537.36" etag="ifZLLmJCQLW9kfPQZuZ8" version="22.1.5" type="github">
  <diagram name="aloneisbestes_net" id="gqIzQoZbnaUB3xAkek2J">
    <mxGraphModel dx="1834" dy="345" grid="0" gridSize="10" guides="1" tooltips="1" connect="1" arrows="1" fold="1" page="0" pageScale="1" pageWidth="827" pageHeight="1169" math="0" shadow="0">
      <root>
        <mxCell id="0" />
        <mxCell id="1" parent="0" />
        <mxCell id="Z-br_Cgl0osoN-3U4cSw-1" value="AIBObject" style="rounded=0;whiteSpace=wrap;html=1;" vertex="1" parent="1">
          <mxGeometry x="152" y="431" width="109" height="45" as="geometry" />
        </mxCell>
        <mxCell id="Z-br_Cgl0osoN-3U4cSw-2" value="AIBAbstractSocket" style="rounded=0;whiteSpace=wrap;html=1;" vertex="1" parent="1">
          <mxGeometry x="-131" y="558" width="109" height="45" as="geometry" />
        </mxCell>
        <mxCell id="Z-br_Cgl0osoN-3U4cSw-3" value="AIBTcpServer" style="rounded=0;whiteSpace=wrap;html=1;" vertex="1" parent="1">
          <mxGeometry x="-3" y="558" width="109" height="45" as="geometry" />
        </mxCell>
      </root>
    </mxGraphModel>
  </diagram>
</mxfile>
